HIERARCHY
ROOT Hips
{
	OFFSET 0.000000 0.000000 0.000000
	CHANNELS 6 Xposition Yposition Zposition Xrotation Yrotation Zrotation
	JOINT LeftUpLeg_virtual
	{
		OFFSET 0.000000 0.000000 0.000000
		CHANNELS 3 Xrotation Yrotation Zrotation
		JOINT LeftUpLeg
		{
			OFFSET 11.394100 -6.187798 -0.413800
			CHANNELS 3 Xrotation Yrotation Zrotation
			JOINT LeftLeg
			{
				OFFSET 0.430247 -32.302673 3.732800
				CHANNELS 3 Xrotation Yrotation Zrotation
				JOINT LeftFoot
				{
					OFFSET -0.430247 -48.264931 -6.423300
					CHANNELS 3 Xrotation Yrotation Zrotation
					JOINT LeftToeBase
					{
						OFFSET 4.230900 -16.068199 23.438400
						CHANNELS 3 Xrotation Yrotation Zrotation
						JOINT LeftToe_End
						{
							OFFSET 4.510700 0.695400 19.974600
							CHANNELS 3 Xrotation Yrotation Zrotation
							End Site
							{
								OFFSET 0 0 0
							}
						}
					}
				}
			}
		}
	}
	JOINT RightUpLeg_virtual
	{
		OFFSET 0.000000 0.000000 0.000000
		CHANNELS 3 Xrotation Yrotation Zrotation
		JOINT RightUpLeg
		{
			OFFSET -11.333700 -6.187798 -0.413800
			CHANNELS 3 Xrotation Yrotation Zrotation
			JOINT RightLeg
			{
				OFFSET -0.430392 -32.302628 3.733000
				CHANNELS 3 Xrotation Yrotation Zrotation
				JOINT RightFoot
				{
					OFFSET 0.430392 -48.264973 -6.423500
					CHANNELS 3 Xrotation Yrotation Zrotation
					JOINT RightToeBase
					{
						OFFSET -4.230900 -16.068199 23.438400
						CHANNELS 3 Xrotation Yrotation Zrotation
						JOINT RightToe_End
						{
							OFFSET -4.510700 0.695400 19.974600
							CHANNELS 3 Xrotation Yrotation Zrotation
							End Site
							{
								OFFSET 0 0 0
							}
						}
					}
				}
			}
		}
	}
	JOINT Spine_virtual
	{
		OFFSET 0.000000 0.000000 0.000000
		CHANNELS 3 Xrotation Yrotation Zrotation
		JOINT Spine
		{
			OFFSET -0.002400 12.777504 0.315300
			CHANNELS 3 Xrotation Yrotation Zrotation
			JOINT Spine1
			{
				OFFSET -0.002067 5.816869 0.032633
				CHANNELS 3 Xrotation Yrotation Zrotation
				JOINT Spine1_split
				{
					OFFSET -0.002067 5.816869 0.032633
					CHANNELS 3 Xrotation Yrotation Zrotation
					JOINT Spine2
					{
						OFFSET -0.002067 5.816869 0.032633
						CHANNELS 3 Xrotation Yrotation Zrotation
						JOINT Neck_virtual
						{
							OFFSET 0.000000 0.000000 0.000000
							CHANNELS 3 Xrotation Yrotation Zrotation
							JOINT Neck
							{
								OFFSET -0.003700 21.199493 -0.826900
								CHANNELS 3 Xrotation Yrotation Zrotation
								JOINT Head
								{
									OFFSET 0.000000 20.442200 4.834800
									CHANNELS 3 Xrotation Yrotation Zrotation
									JOINT HeadTop_End
									{
										OFFSET 0.000000 34.668396 4.968400
										CHANNELS 3 Xrotation Yrotation Zrotation
										End Site
										{
											OFFSET 0 0 0
										}
									}
								}
							}
						}
						JOINT LeftShoulder_virtual
						{
							OFFSET 0.000000 0.000000 0.000000
							CHANNELS 3 Xrotation Yrotation Zrotation
							JOINT LeftShoulder
							{
								OFFSET 3.288150 8.794197 -1.372250
								CHANNELS 3 Xrotation Yrotation Zrotation
								JOINT LeftShoulder_split
								{
									OFFSET 3.288150 8.794197 -1.372250
									CHANNELS 3 Xrotation Yrotation Zrotation
									JOINT LeftArm
									{
										OFFSET 11.953299 -2.279007 -0.146200
										CHANNELS 3 Xrotation Yrotation Zrotation
										JOINT LeftForeArm
										{
											OFFSET 18.448900 0.000000 0.000000
											CHANNELS 3 Xrotation Yrotation Zrotation
											JOINT LeftHand
											{
												OFFSET 29.527798 0.000000 0.000000
												CHANNELS 3 Xrotation Yrotation Zrotation
												End Site
												{
													OFFSET 0 0 0
												}
											}
										}
									}
								}
							}
						}
						JOINT RightShoulder_virtual
						{
							OFFSET 0.000000 0.000000 0.000000
							CHANNELS 3 Xrotation Yrotation Zrotation
							JOINT RightShoulder
							{
								OFFSET -3.249400 8.794197 -1.372250
								CHANNELS 3 Xrotation Yrotation Zrotation
								JOINT RightShoulder_split
								{
									OFFSET -3.249400 8.794197 -1.372250
									CHANNELS 3 Xrotation Yrotation Zrotation
									JOINT RightArm
									{
										OFFSET -11.953299 -2.279007 -0.146200
										CHANNELS 3 Xrotation Yrotation Zrotation
										JOINT RightForeArm
										{
											OFFSET -18.448900 0.000000 0.000000
											CHANNELS 3 Xrotation Yrotation Zrotation
											JOINT RightHand
											{
												OFFSET -29.527802 0.000000 0.000000
												CHANNELS 3 Xrotation Yrotation Zrotation
												End Site
												{
													OFFSET 0 0 0
												}
											}
										}
									}
								}
							}
						}
					}
				}
			}
		}
	}
}
MOTION
Frames: 4
Frame Time: 0.03333333
-2.127105 83.783623 -0.758667 0.000000 0.000000 0.000000 -6.150665 -64.615857 -1.875760 -30.767304 4.975771 28.716356 43.285668 -6.406034 -3.791580 -8.402250 -5.262846 -10.512744 -3.270403 -0.333705 0.036851 0.000000 0.000000 0.000000 -8.970079 -61.736591 -2.363230 -31.529031 -7.493757 -28.177631 48.078620 4.825757 -6.688098 -18.643485 4.208056 22.061583 -6.757708 1.547782 -0.468969 0.000000 0.000000 0.000000 -5.341689 -62.518675 -0.716083 9.607243 -1.547978 -0.804423 5.045146 -0.205801 -5.087027 1.693267 -10.123581 2.031598 0.000000 0.000000 0.000000 6.890548 0.259861 -4.373741 8.152439 21.244354 10.676412 12.468415 27.875327 -17.703816 0.000000 0.000000 0.000000 5.118743 -0.190779 -3.763858 -9.644392 -8.471942 -6.593054 0.931503 -3.086703 -2.032234 -18.551006 23.860863 -24.850173 11.877132 -45.285124 3.792968 0.000000 0.000000 0.000000 3.018101 -1.026252 -4.155626 -9.810893 2.743902 7.397718 -5.238502 0.762849 3.128906 -44.431535 -17.572632 42.765799 176.722470 64.619887 -161.606920 0.000000 0.000000 0.000000 
-2.565633 84.302094 0.043156 0.000000 0.000000 0.000000 -7.031505 -63.942312 -2.519173 -30.276354 5.285933 28.218213 42.509171 -6.455225 -3.343672 -7.942874 -5.439377 -9.913677 -3.372545 -0.249329 0.312229 0.000000 0.000000 0.000000 -9.998638 -61.285081 -3.160329 -30.155999 -7.794056 -28.309184 47.116397 4.669960 -6.585607 -17.831083 3.917966 24.563100 -9.271446 1.710207 -1.205513 0.000000 0.000000 0.000000 -7.611477 -62.006342 -2.202439 9.023142 -1.916282 -0.281161 4.632466 -0.382798 -4.504500 0.375667 -9.166402 1.579870 0.000000 0.000000 0.000000 5.905161 0.076077 -3.847448 9.316488 20.728103 10.798701 12.404342 27.111150 -16.696123 0.000000 0.000000 0.000000 4.562989 -0.377250 -3.464910 -9.483429 -8.572634 -7.869148 1.477494 -2.556305 -3.295438 -18.376443 22.362173 -27.202316 14.100276 -48.445743 5.817855 0.000000 0.000000 0.000000 2.900140 -1.093891 -3.713474 -9.989241 1.731069 8.900394 -4.582462 0.066759 1.982309 -40.544983 -16.270209 39.148937 173.975819 65.980174 -158.274894 0.000000 0.000000 0.000000 
-3.211447 85.310783 0.817131 0.000000 0.000000 0.000000 -8.531300 -61.708143 -3.644380 -29.153645 5.273832 26.424030 40.473024 -6.130715 -2.087447 -6.847742 -5.040247 -9.976143 -3.439910 0.029455 0.406132 0.000000 0.000000 0.000000 -11.033733 -59.150681 -4.085285 -25.854062 -9.671473 -28.283957 44.157279 3.633742 -6.318267 -17.546520 3.005325 26.180031 -8.955569 2.045505 -1.986175 0.000000 0.000000 0.000000 -9.449024 -60.191008 -3.596834 7.755880 -2.471655 0.565683 3.663206 -0.688996 -2.997799 -0.274170 -7.046196 1.069986 0.000000 0.000000 0.000000 4.172865 -0.243883 -2.306227 9.766508 19.304502 11.498050 13.645851 24.285793 -15.883880 0.000000 0.000000 0.000000 3.343198 -0.576800 -2.079979 -9.412560 -7.888214 -9.810432 1.182351 -1.451631 -4.424802 -15.895761 19.581606 -30.668987 18.682985 -53.799027 9.656032 0.000000 0.000000 0.000000 2.034492 -1.303082 -2.325161 -9.652264 0.435112 10.939683 -4.362346 1.084826 1.013062 -36.490146 -20.072343 29.756976 -174.979051 60.605771 -167.928602 0.000000 0.000000 0.000000 
-3.904424 86.536415 1.551529 0.000000 0.000000 0.000000 -10.390698 -58.594444 -4.972229 -27.553014 4.721196 23.539962 37.715632 -5.564412 -0.230055 -5.371823 -4.103648 -10.672499 -3.586522 0.484839 0.174798 0.000000 0.000000 0.000000 -11.833423 -55.644950 -4.804252 -19.495049 -12.776306 -27.904803 40.195025 1.648933 -5.957832 -17.196278 1.515045 26.639025 -7.129796 2.464401 -2.361006 0.000000 0.000000 0.000000 -10.770495 -57.130632 -4.759331 6.241346 -3.036783 1.507798 2.334604 -0.924994 -0.945498 -0.192153 -4.796845 0.718212 0.000000 0.000000 0.000000 2.015923 -0.539139 -0.165692 8.867983 17.333900 12.888066 15.659973 20.155909 -15.418157 0.000000 0.000000 0.000000 1.632671 -0.683827 0.024257 -9.434718 -6.556638 -11.810363 0.552029 0.003776 -4.828099 -11.637010 16.320375 -33.681620 26.121626 -59.863487 15.921864 0.000000 0.000000 0.000000 0.552301 -1.552778 -0.368138 -8.871382 -0.801615 13.156927 -4.029459 3.355824 0.631660 -34.154153 -28.980916 17.496324 -162.621285 50.105072 -178.406631 0.000000 0.000000 0.000000 
